<svg width="89" height="99" viewBox="0 0 89 99" fill="none" xmlns="http://www.w3.org/2000/svg">
  <path d="M41.7598 44.6279L12.2939 72.4248L39.8574 43.21L3 41L39.8584 38.79L12.294 9.57324L41.7598 37.3721L44 -3.58433e-06L46.2109 36.8721L75.1455 9.57324L47.6123 38.7588L85 41L47.6143 43.2422L75.1455 72.4248L46.2109 45.1279L44 82L41.7598 44.6279Z" fill="white"/>
  <path d="M72.1818 82L44.5455 46.6445L43.4545 46.6445L15.8182 82L4 82L38.1818 40L49.8182 40L84 82L72.1818 82Z" fill="white"/>
  <path d="M65.5 40.125C65.5 41.8029 65.1886 43.385 64.5625 44.8662L64.5625 44.8652C63.9372 46.3553 63.0214 47.6956 61.8203 48.8848L61.5947 49.1055C60.4485 50.1994 59.077 51.1164 57.4863 51.8594L57.4863 51.8584C55.797 52.6538 53.878 53.1977 51.7344 53.4951L51.165 53.5742L51.165 48.6992L51.5859 48.6318C52.9652 48.4099 54.1621 48.0234 55.1836 47.4805L55.1865 47.4785C56.2175 46.9405 57.0739 46.288 57.7617 45.5244L57.7666 45.5186C58.47 44.7615 58.9941 43.926 59.3428 43.0098C59.6935 42.0882 59.8691 41.1276 59.8691 40.125C59.8691 38.305 59.284 36.6589 58.1006 35.1709L58.1016 35.1699C56.9208 33.6958 55.1608 32.4972 52.7852 31.5928L52.7861 31.5918C50.4235 30.7027 47.4995 30.25 44 30.25C40.5009 30.25 37.5773 30.7029 35.2148 31.5918L35.2148 31.5928C32.8394 32.4971 31.0802 33.696 29.8994 35.1699C28.716 36.6579 28.1309 38.305 28.1309 40.125C28.1309 41.1276 28.3065 42.0882 28.6572 43.0098C29.0066 43.9277 29.525 44.7643 30.2158 45.5215L30.4863 45.8027C31.1362 46.4481 31.9106 47.0074 32.8135 47.4785L32.8145 47.4795C33.851 48.0236 35.0494 48.41 36.415 48.6318L36.835 48.6992L36.835 53.5742L36.2656 53.4951C34.1346 53.1976 32.2155 52.6543 30.5137 51.8594C28.8176 51.0671 27.3642 50.0774 26.1611 48.8867L26.1592 48.8848C24.9712 47.6954 24.0635 46.3546 23.4385 44.8652L23.4375 44.8662C22.8114 43.385 22.5 41.8029 22.5 40.125C22.5 37.2824 23.3904 34.7451 25.165 32.5312C26.9351 30.3231 29.4372 28.6054 32.6406 27.3623C35.8526 26.1159 39.6429 25.5 44 25.5C48.3571 25.5 52.1474 26.1159 55.3594 27.3623C58.5628 28.6054 61.0649 30.3231 62.835 32.5312C64.6096 34.7451 65.5 37.2824 65.5 40.125Z" fill="white" stroke="white"/>
  <path d="M1.06108 97H0.230114L2.63352 90.4545H3.4517L5.85511 97H5.02415L3.06818 91.4901H3.01705L1.06108 97ZM1.3679 94.4432H4.71733V95.1463H1.3679V94.4432ZM7.66726 90.4545V97H6.87464V90.4545H7.66726ZM11.9667 93.3757V94.0788H9.10307V93.3757H11.9667ZM18.6632 92.5H17.8706C17.8237 92.272 17.7417 92.0717 17.6245 91.8991C17.5094 91.7266 17.3688 91.5817 17.2026 91.4645C17.0385 91.3452 16.8564 91.2557 16.6561 91.196C16.4558 91.1364 16.247 91.1065 16.0297 91.1065C15.6333 91.1065 15.2743 91.2067 14.9526 91.407C14.633 91.6072 14.3784 91.9023 14.1887 92.2923C14.0012 92.6822 13.9075 93.1605 13.9075 93.7273C13.9075 94.294 14.0012 94.7724 14.1887 95.1623C14.3784 95.5522 14.633 95.8473 14.9526 96.0476C15.2743 96.2479 15.6333 96.348 16.0297 96.348C16.247 96.348 16.4558 96.3182 16.6561 96.2585C16.8564 96.1989 17.0385 96.1104 17.2026 95.9933C17.3688 95.8739 17.5094 95.728 17.6245 95.5554C17.7417 95.3807 17.8237 95.1804 17.8706 94.9545H18.6632C18.6035 95.2891 18.4949 95.5884 18.3372 95.8526C18.1795 96.1168 17.9835 96.3416 17.7491 96.527C17.5147 96.7102 17.2516 96.8498 16.9597 96.9457C16.6699 97.0415 16.3599 97.0895 16.0297 97.0895C15.4714 97.0895 14.975 96.9531 14.5403 96.6804C14.1056 96.4077 13.7637 96.0199 13.5144 95.517C13.2651 95.0142 13.1404 94.4176 13.1404 93.7273C13.1404 93.0369 13.2651 92.4403 13.5144 91.9375C13.7637 91.4347 14.1056 91.0469 14.5403 90.7741C14.975 90.5014 15.4714 90.3651 16.0297 90.3651C16.3599 90.3651 16.6699 90.413 16.9597 90.5089C17.2516 90.6048 17.5147 90.7454 17.7491 90.9308C17.9835 91.114 18.1795 91.3377 18.3372 91.6019C18.4949 91.864 18.6035 92.1634 18.6632 92.5ZM25.4667 93.7273C25.4667 94.4176 25.3421 95.0142 25.0928 95.517C24.8435 96.0199 24.5015 96.4077 24.0669 96.6804C23.6322 96.9531 23.1357 97.0895 22.5775 97.0895C22.0193 97.0895 21.5228 96.9531 21.0882 96.6804C20.6535 96.4077 20.3115 96.0199 20.0622 95.517C19.8129 95.0142 19.6883 94.4176 19.6883 93.7273C19.6883 93.0369 19.8129 92.4403 20.0622 91.9375C20.3115 91.4347 20.6535 91.0469 21.0882 90.7741C21.5228 90.5014 22.0193 90.3651 22.5775 90.3651C23.1357 90.3651 23.6322 90.5014 24.0669 90.7741C24.5015 91.0469 24.8435 91.4347 25.0928 91.9375C25.3421 92.4403 25.4667 93.0369 25.4667 93.7273ZM24.6997 93.7273C24.6997 93.1605 24.6048 92.6822 24.4152 92.2923C24.2277 91.9023 23.9731 91.6072 23.6514 91.407C23.3318 91.2067 22.9738 91.1065 22.5775 91.1065C22.1812 91.1065 21.8222 91.2067 21.5004 91.407C21.1808 91.6072 20.9262 91.9023 20.7366 92.2923C20.5491 92.6822 20.4553 93.1605 20.4553 93.7273C20.4553 94.294 20.5491 94.7724 20.7366 95.1623C20.9262 95.5522 21.1808 95.8473 21.5004 96.0476C21.8222 96.2479 22.1812 96.348 22.5775 96.348C22.9738 96.348 23.3318 96.2479 23.6514 96.0476C23.9731 95.8473 24.2277 95.5522 24.4152 95.1623C24.6048 94.7724 24.6997 94.294 24.6997 93.7273ZM31.9898 90.4545V97H31.2227L27.656 91.8608H27.5921V97H26.7994V90.4545H27.5665L31.146 95.6065H31.21V90.4545H31.9898ZM33.2179 91.1577V90.4545H38.127V91.1577H36.0687V97H35.2761V91.1577H33.2179ZM39.3502 97V90.4545H43.3005V91.1577H40.1428V93.3693H43.096V94.0724H40.1428V96.2969H43.3517V97H39.3502ZM48.3087 92.0909C48.2703 91.767 48.1148 91.5156 47.8421 91.3366C47.5693 91.1577 47.2348 91.0682 46.8385 91.0682C46.5487 91.0682 46.2952 91.1151 46.0779 91.2088C45.8627 91.3026 45.6943 91.4315 45.5729 91.5955C45.4536 91.7596 45.3939 91.946 45.3939 92.1548C45.3939 92.3295 45.4355 92.4798 45.5186 92.6055C45.6038 92.729 45.7124 92.8324 45.8445 92.9155C45.9767 92.9964 46.1151 93.0636 46.26 93.1168C46.4049 93.168 46.5381 93.2095 46.6595 93.2415L47.3243 93.4205C47.4948 93.4652 47.6844 93.527 47.8932 93.6058C48.1041 93.6847 48.3055 93.7923 48.4972 93.9286C48.6911 94.0629 48.8509 94.2354 48.9767 94.4464C49.1024 94.6573 49.1652 94.9162 49.1652 95.223C49.1652 95.5767 49.0725 95.8963 48.8872 96.1818C48.7039 96.4673 48.4355 96.6942 48.0818 96.8626C47.7302 97.0309 47.303 97.1151 46.8002 97.1151C46.3314 97.1151 45.9255 97.0394 45.5825 96.8881C45.2416 96.7369 44.9731 96.5259 44.7771 96.2553C44.5832 95.9847 44.4735 95.6705 44.4479 95.3125H45.2661C45.2874 95.5597 45.3705 95.7642 45.5154 95.9261C45.6624 96.0859 45.8477 96.2053 46.0715 96.2841C46.2973 96.3608 46.5402 96.3991 46.8002 96.3991C47.1027 96.3991 47.3744 96.3501 47.6151 96.2521C47.8559 96.152 48.0466 96.0135 48.1872 95.8366C48.3279 95.6577 48.3982 95.4489 48.3982 95.2102C48.3982 94.9929 48.3374 94.8161 48.216 94.6797C48.0945 94.5433 47.9347 94.4325 47.7366 94.3473C47.5384 94.2621 47.3243 94.1875 47.0942 94.1236L46.2888 93.8935C45.7774 93.7464 45.3726 93.5366 45.0743 93.2638C44.776 92.9911 44.6269 92.6342 44.6269 92.1932C44.6269 91.8267 44.7259 91.5071 44.9241 91.2344C45.1244 90.9595 45.3928 90.7464 45.7295 90.5952C46.0683 90.4418 46.4465 90.3651 46.8641 90.3651C47.286 90.3651 47.661 90.4407 47.9891 90.592C48.3172 90.7411 48.5771 90.9457 48.7689 91.2056C48.9628 91.4656 49.0651 91.7607 49.0757 92.0909H48.3087ZM50.1104 91.1577V90.4545H55.0195V91.1577H52.9613V97H52.1687V91.1577H50.1104ZM56.3826 97.0511C56.225 97.0511 56.0897 96.9947 55.9767 96.8817C55.8638 96.7688 55.8074 96.6335 55.8074 96.4759C55.8074 96.3182 55.8638 96.1829 55.9767 96.07C56.0897 95.957 56.225 95.9006 56.3826 95.9006C56.5403 95.9006 56.6756 95.957 56.7885 96.07C56.9015 96.1829 56.9579 96.3182 56.9579 96.4759C56.9579 96.5803 56.9313 96.6761 56.878 96.7635C56.8269 96.8509 56.7576 96.9212 56.6703 96.9744C56.585 97.0256 56.4892 97.0511 56.3826 97.0511ZM63.6808 92.5H62.8881C62.8413 92.272 62.7592 92.0717 62.642 91.8991C62.527 91.7266 62.3864 91.5817 62.2202 91.4645C62.0561 91.3452 61.8739 91.2557 61.6737 91.196C61.4734 91.1364 61.2646 91.1065 61.0472 91.1065C60.6509 91.1065 60.2919 91.2067 59.9702 91.407C59.6506 91.6072 59.396 91.9023 59.2063 92.2923C59.0188 92.6822 58.9251 93.1605 58.9251 93.7273C58.9251 94.294 59.0188 94.7724 59.2063 95.1623C59.396 95.5522 59.6506 95.8473 59.9702 96.0476C60.2919 96.2479 60.6509 96.348 61.0472 96.348C61.2646 96.348 61.4734 96.3182 61.6737 96.2585C61.8739 96.1989 62.0561 96.1104 62.2202 95.9933C62.3864 95.8739 62.527 95.728 62.642 95.5554C62.7592 95.3807 62.8413 95.1804 62.8881 94.9545H63.6808C63.6211 95.2891 63.5124 95.5884 63.3548 95.8526C63.1971 96.1168 63.0011 96.3416 62.7667 96.527C62.5323 96.7102 62.2692 96.8498 61.9773 96.9457C61.6875 97.0415 61.3775 97.0895 61.0472 97.0895C60.489 97.0895 59.9925 96.9531 59.5579 96.6804C59.1232 96.4077 58.7813 96.0199 58.532 95.517C58.2827 95.0142 58.158 94.4176 58.158 93.7273C58.158 93.0369 58.2827 92.4403 58.532 91.9375C58.7813 91.4347 59.1232 91.0469 59.5579 90.7741C59.9925 90.5014 60.489 90.3651 61.0472 90.3651C61.3775 90.3651 61.6875 90.413 61.9773 90.5089C62.2692 90.6048 62.5323 90.7454 62.7667 90.9308C63.0011 91.114 63.1971 91.3377 63.3548 91.6019C63.5124 91.864 63.6211 92.1634 63.6808 92.5ZM64.9616 97V90.4545H65.7542V96.2969H68.7968V97H64.9616ZM75.2919 93.7273C75.2919 94.4176 75.1673 95.0142 74.918 95.517C74.6687 96.0199 74.3267 96.4077 73.892 96.6804C73.4574 96.9531 72.9609 97.0895 72.4027 97.0895C71.8445 97.0895 71.348 96.9531 70.9134 96.6804C70.4787 96.4077 70.1367 96.0199 69.8874 95.517C69.6381 95.0142 69.5135 94.4176 69.5135 93.7273C69.5135 93.0369 69.6381 92.4403 69.8874 91.9375C70.1367 91.4347 70.4787 91.0469 70.9134 90.7741C71.348 90.5014 71.8445 90.3651 72.4027 90.3651C72.9609 90.3651 73.4574 90.5014 73.892 90.7741C74.3267 91.0469 74.6687 91.4347 74.918 91.9375C75.1673 92.4403 75.2919 93.0369 75.2919 93.7273ZM74.5249 93.7273C74.5249 93.1605 74.43 92.6822 74.2404 92.2923C74.0529 91.9023 73.7983 91.6072 73.4766 91.407C73.157 91.2067 72.799 91.1065 72.4027 91.1065C72.0064 91.1065 71.6474 91.2067 71.3256 91.407C71.006 91.6072 70.7514 91.9023 70.5618 92.2923C70.3743 92.6822 70.2805 93.1605 70.2805 93.7273C70.2805 94.294 70.3743 94.7724 70.5618 95.1623C70.7514 95.5522 71.006 95.8473 71.3256 96.0476C71.6474 96.2479 72.0064 96.348 72.4027 96.348C72.799 96.348 73.157 96.2479 73.4766 96.0476C73.7983 95.8473 74.0529 95.5522 74.2404 95.1623C74.43 94.7724 74.5249 94.294 74.5249 93.7273ZM80.9201 90.4545H81.7127V94.7884C81.7127 95.2358 81.6072 95.6353 81.3963 95.9869C81.1875 96.3363 80.8924 96.6122 80.511 96.8146C80.1296 97.0149 79.6822 97.1151 79.1687 97.1151C78.6552 97.1151 78.2077 97.0149 77.8263 96.8146C77.445 96.6122 77.1488 96.3363 76.9379 95.9869C76.729 95.6353 76.6246 95.2358 76.6246 94.7884V90.4545H77.4173V94.7244C77.4173 95.044 77.4876 95.3285 77.6282 95.5778C77.7688 95.8249 77.9691 96.0199 78.229 96.1626C78.4911 96.3033 78.8043 96.3736 79.1687 96.3736C79.533 96.3736 79.8462 96.3033 80.1083 96.1626C80.3704 96.0199 80.5707 95.8249 80.7092 95.5778C80.8498 95.3285 80.9201 95.044 80.9201 94.7244V90.4545ZM85.3154 97H83.2955V90.4545H85.4049C86.0399 90.4545 86.5832 90.5856 87.0349 90.8477C87.4866 91.1076 87.8328 91.4815 88.0736 91.9695C88.3144 92.4553 88.4347 93.0369 88.4347 93.7145C88.4347 94.3963 88.3133 94.9833 88.0704 95.4755C87.8275 95.9656 87.4738 96.3427 87.0093 96.6069C86.5448 96.869 85.9802 97 85.3154 97ZM84.0882 96.2969H85.2643C85.8055 96.2969 86.254 96.1925 86.6098 95.9837C86.9656 95.7749 87.2309 95.4776 87.4056 95.092C87.5803 94.7063 87.6677 94.2472 87.6677 93.7145C87.6677 93.1861 87.5814 92.7312 87.4088 92.3498C87.2362 91.9663 86.9784 91.6722 86.6354 91.4677C86.2923 91.261 85.8651 91.1577 85.3538 91.1577H84.0882V96.2969Z" fill="white"/>
</svg>
