<svg width="128" height="128" viewBox="0 0 128 128" fill="none" xmlns="http://www.w3.org/2000/svg">
  <rect width="128" height="128" rx="32" fill="#111111"/>
  <g transform="translate(19 14)">
    <path d="M41.7598 44.6279L12.2939 72.4248L39.8574 43.21L3 41L39.8584 38.79L12.294 9.57324L41.7598 37.3721L44 -3.58433e-06L46.2109 36.8721L75.1455 9.57324L47.6123 38.7588L85 41L47.6143 43.2422L75.1455 72.4248L46.2109 45.1279L44 82L41.7598 44.6279Z" fill="white"/>
    <path d="M72.1818 82L44.5455 46.6445L43.4545 46.6445L15.8182 82L4 82L38.1818 40L49.8182 40L84 82L72.1818 82Z" fill="white"/>
    <path d="M65.5 40.125C65.5 41.8029 65.1886 43.385 64.5625 44.8662L64.5625 44.8652C63.9372 46.3553 63.0214 47.6956 61.8203 48.8848L61.5947 49.1055C60.4485 50.1994 59.077 51.1164 57.4863 51.8594L57.4863 51.8584C55.797 52.6538 53.878 53.1977 51.7344 53.4951L51.165 53.5742L51.165 48.6992L51.5859 48.6318C52.9652 48.4099 54.1621 48.0234 55.1836 47.4805L55.1865 47.4785C56.2175 46.9405 57.0739 46.288 57.7617 45.5244L57.7666 45.5186C58.47 44.7615 58.9941 43.926 59.3428 43.0098C59.6935 42.0882 59.8691 41.1276 59.8691 40.125C59.8691 38.305 59.284 36.6589 58.1006 35.1709L58.1016 35.1699C56.9208 33.6958 55.1608 32.4972 52.7852 31.5928L52.7861 31.5918C50.4235 30.7027 47.4995 30.25 44 30.25C40.5009 30.25 37.5773 30.7029 35.2148 31.5918L35.2148 31.5928C32.8394 32.4971 31.0802 33.696 29.8994 35.1699C28.716 36.6579 28.1309 38.305 28.1309 40.125C28.1309 41.1276 28.3065 42.0882 28.6572 43.0098C29.0066 43.9277 29.525 44.7643 30.2158 45.5215L30.4863 45.8027C31.1362 46.4481 31.9106 47.0074 32.8135 47.4785L32.8145 47.4795C33.851 48.0236 35.0494 48.41 36.415 48.6318L36.835 48.6992L36.835 53.5742L36.2656 53.4951C34.1346 53.1976 32.2155 52.6543 30.5137 51.8594C28.8176 51.0671 27.3642 50.0774 26.1611 48.8867L26.1592 48.8848C24.9712 47.6954 24.0635 46.3546 23.4385 44.8652L23.4375 44.8662C22.8114 43.385 22.5 41.8029 22.5 40.125C22.5 37.2824 23.3904 34.7451 25.165 32.5312C26.9351 30.3231 29.4372 28.6054 32.6406 27.3623C35.8526 26.1159 39.6429 25.5 44 25.5C48.3571 25.5 52.1474 26.1159 55.3594 27.3623C58.5628 28.6054 61.0649 30.3231 62.835 32.5312C64.6096 34.7451 65.5 37.2824 65.5 40.125Z" fill="white" stroke="white"/>
  </g>
</svg>
